<?xml version="1.0" encoding="UTF-8"?>
<svg version="1.1" xmlns="http://www.w3.org/2000/svg" width="59" height="41">
<path d="M0 0 C1.48831242 0.00667405 2.97660807 0.01863442 4.46484375 0.03515625 C5.22345703 0.03966797 5.98207031 0.04417969 6.76367188 0.04882812 C8.64326246 0.06064945 10.52281274 0.07858547 12.40234375 0.09765625 C12.40234375 0.75765625 12.40234375 1.41765625 12.40234375 2.09765625 C10.73567708 3.76432292 9.06901042 5.43098958 7.40234375 7.09765625 C3.81153454 11.58616776 3.26056991 16.48507992 3.40234375 22.09765625 C4.45913717 27.62617058 6.44625235 32.013949 10.40234375 36.09765625 C11.06234375 36.42765625 11.72234375 36.75765625 12.40234375 37.09765625 C12.40234375 37.75765625 12.40234375 38.41765625 12.40234375 39.09765625 C7.12234375 39.09765625 1.84234375 39.09765625 -3.59765625 39.09765625 C-3.92765625 31.83765625 -4.25765625 24.57765625 -4.59765625 17.09765625 C-5.91765625 17.42765625 -7.23765625 17.75765625 -8.59765625 18.09765625 C-10.24765625 15.78765625 -11.89765625 13.47765625 -13.59765625 11.09765625 C-12.11882433 9.45152213 -10.63958148 7.80575717 -9.16015625 6.16015625 C-8.33644531 5.24363281 -7.51273437 4.32710938 -6.6640625 3.3828125 C-3.69579157 0.10032008 -3.69579157 0.10032008 0 0 Z " fill="#2AB6CF" transform="translate(13.59765625,0.90234375)"/>
<path d="M0 0 C7.12716602 0.49152869 11.31327842 2.01475381 16.25 7.5 C19.37007937 11.95725625 20.25152412 14.46646941 20 20 C17.03 20 14.06 20 11 20 C10.484375 18.741875 9.96875 17.48375 9.4375 16.1875 C7.83555347 12.91999174 6.62892302 11.40502884 3.25 10 C2.1775 9.67 1.105 9.34 0 9 C0 6.03 0 3.06 0 0 Z " fill="#2390B8" transform="translate(39,0)"/>
<path d="M0 0 C2.97 0 5.94 0 9 0 C9.515625 1.258125 10.03125 2.51625 10.5625 3.8125 C12.16444653 7.08000826 13.37107698 8.59497116 16.75 10 C17.8225 10.33 18.895 10.66 20 11 C20 13.97 20 16.94 20 20 C14.84056673 20.64492916 11.97599079 19.23187164 7.828125 16.4296875 C4.30336192 13.67314201 1.53327481 10.21650572 0 6 C-0.125 2.75 -0.125 2.75 0 0 Z " fill="#28AAC8" transform="translate(18,21)"/>
<path d="M0 0 C0 2.97 0 5.94 0 9 C-1.258125 9.515625 -2.51625 10.03125 -3.8125 10.5625 C-7.08000826 12.16444653 -8.59497116 13.37107698 -10 16.75 C-10.33 17.8225 -10.66 18.895 -11 20 C-13.97 20 -16.94 20 -20 20 C-19.50901749 12.88075365 -17.96895778 8.74057641 -12.5625 3.75 C-8.34620753 0.87058075 -5.12111308 -0.29263503 0 0 Z " fill="#28AAC8" transform="translate(38,0)"/>
<path d="M0 0 C2.97 0 5.94 0 9 0 C9.64492916 5.15943327 8.23187164 8.02400921 5.4296875 12.171875 C2.67314201 15.69663808 -0.78349428 18.46672519 -5 20 C-8.25 20.125 -8.25 20.125 -11 20 C-11 17.03 -11 14.06 -11 11 C-9.3603125 10.38125 -9.3603125 10.38125 -7.6875 9.75 C-4.47685812 8.36845107 -2.71634624 7.14663476 -1 4 C-0.67 2.68 -0.34 1.36 0 0 Z " fill="#2390B8" transform="translate(50,21)"/>
<path d="M0 0 C4.32504836 1.65863505 7.09418825 4.871041 10.25 8.125 C11.08144531 8.96998047 11.08144531 8.96998047 11.9296875 9.83203125 C13.29104485 11.21686028 14.64614859 12.60783204 16 14 C15.67 14.99 15.34 15.98 15 17 C10.67495164 15.34136495 7.90581175 12.128959 4.75 8.875 C4.19570313 8.31167969 3.64140625 7.74835937 3.0703125 7.16796875 C1.70895515 5.78313972 0.35385141 4.39216796 -1 3 C-0.67 2.01 -0.34 1.02 0 0 Z " fill="#259CC0" transform="translate(31,12)"/>
<path d="M0 0 C0.99 0.99 1.98 1.98 3 3 C1.35 4.65 -0.3 6.3 -2 8 C-2.99 7.67 -3.98 7.34 -5 7 C-3.70700306 4.11562221 -2.34058637 2.12780579 0 0 Z " fill="#27A2C3" transform="translate(35,21)"/>
<path d="M0 0 C0.99 0.33 1.98 0.66 3 1 C1.60667426 4.36720387 0.0210714 5.9859524 -3 8 C-3.66 7.01 -4.32 6.02 -5 5 C-3.35 3.35 -1.7 1.7 0 0 Z " fill="#2596BC" transform="translate(44,12)"/>
</svg>
