<svg width="132" height="19" viewBox="0 0 132 19" fill="none" xmlns="http://www.w3.org/2000/svg">
<path d="M9.61427 15.5176L14.0098 18.3084C14.5767 18.666 15.2744 18.134 15.1087 17.4799L13.8354 12.4738C13.801 12.3351 13.8064 12.1894 13.8512 12.0536C13.8959 11.9178 13.9781 11.7975 14.0883 11.7063L18.0304 8.4184C18.5449 7.99106 18.2833 7.12765 17.6117 7.08404L12.4662 6.75263C12.3258 6.74446 12.1908 6.69557 12.0777 6.61193C11.9646 6.5283 11.8784 6.41354 11.8295 6.28168L9.9108 1.45006C9.86001 1.31043 9.76749 1.18982 9.64579 1.10458C9.52409 1.01935 9.37911 0.973633 9.23053 0.973633C9.08196 0.973633 8.93698 1.01935 8.81528 1.10458C8.69358 1.18982 8.60106 1.31043 8.55027 1.45006L6.63158 6.28168C6.58268 6.41354 6.49642 6.5283 6.38336 6.61193C6.2703 6.69557 6.13532 6.74446 5.99492 6.75263L0.849331 7.08404C0.177788 7.12765 -0.0838518 7.99106 0.430707 8.4184L4.37275 11.7063C4.48293 11.7975 4.56513 11.9178 4.60988 12.0536C4.65463 12.1894 4.6601 12.3351 4.62567 12.4738L3.44829 17.1136C3.2477 17.8985 4.08495 18.5352 4.75649 18.1078L8.8468 15.5176C8.9615 15.4446 9.09461 15.4059 9.23053 15.4059C9.36646 15.4059 9.49957 15.4446 9.61427 15.5176Z" fill="#FFA43C"/>
<path d="M37.856 15.5176L42.2515 18.3084C42.8184 18.666 43.5161 18.134 43.3504 17.4799L42.0771 12.4738C42.0427 12.3351 42.0481 12.1894 42.0929 12.0536C42.1376 11.9178 42.2198 11.7975 42.33 11.7063L46.2721 8.4184C46.7866 7.99106 46.525 7.12765 45.8534 7.08404L40.7079 6.75263C40.5675 6.74446 40.4325 6.69557 40.3194 6.61193C40.2063 6.5283 40.1201 6.41354 40.0712 6.28168L38.1525 1.45006C38.1017 1.31043 38.0092 1.18982 37.8875 1.10458C37.7658 1.01935 37.6208 0.973633 37.4722 0.973633C37.3237 0.973633 37.1787 1.01935 37.057 1.10458C36.9353 1.18982 36.8428 1.31043 36.792 1.45006L34.8733 6.28168C34.8244 6.41354 34.7381 6.5283 34.6251 6.61193C34.512 6.69557 34.377 6.74446 34.2366 6.75263L29.091 7.08404C28.4195 7.12765 28.1578 7.99106 28.6724 8.4184L32.6145 11.7063C32.7246 11.7975 32.8068 11.9178 32.8516 12.0536C32.8963 12.1894 32.9018 12.3351 32.8674 12.4738L31.69 17.1136C31.4894 17.8985 32.3266 18.5352 32.9982 18.1078L37.0885 15.5176C37.2032 15.4446 37.3363 15.4059 37.4722 15.4059C37.6082 15.4059 37.7413 15.4446 37.856 15.5176Z" fill="#FFA43C"/>
<path d="M66.0977 15.5176L70.4932 18.3084C71.0601 18.666 71.7578 18.134 71.5921 17.4799L70.3188 12.4738C70.2844 12.3351 70.2898 12.1894 70.3346 12.0536C70.3793 11.9178 70.4615 11.7975 70.5717 11.7063L74.5138 8.4184C75.0283 7.99106 74.7667 7.12765 74.0951 7.08404L68.9495 6.75263C68.8092 6.74446 68.6742 6.69557 68.5611 6.61193C68.448 6.5283 68.3618 6.41354 68.3129 6.28168L66.3942 1.45006C66.3434 1.31043 66.2509 1.18982 66.1292 1.10458C66.0075 1.01935 65.8625 0.973633 65.7139 0.973633C65.5654 0.973633 65.4204 1.01935 65.2987 1.10458C65.177 1.18982 65.0845 1.31043 65.0337 1.45006L63.115 6.28168C63.0661 6.41354 62.9798 6.5283 62.8668 6.61193C62.7537 6.69557 62.6187 6.74446 62.4783 6.75263L57.3327 7.08404C56.6612 7.12765 56.3995 7.99106 56.9141 8.4184L60.8561 11.7063C60.9663 11.7975 61.0485 11.9178 61.0933 12.0536C61.138 12.1894 61.1435 12.3351 61.1091 12.4738L59.9317 17.1136C59.7311 17.8985 60.5683 18.5352 61.2399 18.1078L65.3302 15.5176C65.4449 15.4446 65.578 15.4059 65.7139 15.4059C65.8499 15.4059 65.983 15.4446 66.0977 15.5176Z" fill="#FFA43C"/>
<path d="M94.3394 15.5176L98.7349 18.3084C99.3018 18.666 99.9995 18.134 99.8338 17.4799L98.5605 12.4738C98.5261 12.3351 98.5315 12.1894 98.5763 12.0536C98.621 11.9178 98.7032 11.7975 98.8134 11.7063L102.755 8.4184C103.27 7.99106 103.008 7.12765 102.337 7.08404L97.1912 6.75263C97.0509 6.74446 96.9159 6.69557 96.8028 6.61193C96.6897 6.5283 96.6035 6.41354 96.5546 6.28168L94.6359 1.45006C94.5851 1.31043 94.4926 1.18982 94.3709 1.10458C94.2492 1.01935 94.1042 0.973633 93.9556 0.973633C93.8071 0.973633 93.6621 1.01935 93.5404 1.10458C93.4187 1.18982 93.3262 1.31043 93.2754 1.45006L91.3567 6.28168C91.3078 6.41354 91.2215 6.5283 91.1085 6.61193C90.9954 6.69557 90.8604 6.74446 90.72 6.75263L85.5744 7.08404C84.9029 7.12765 84.6412 7.99106 85.1558 8.4184L89.0978 11.7063C89.208 11.7975 89.2902 11.9178 89.335 12.0536C89.3797 12.1894 89.3852 12.3351 89.3508 12.4738L88.1734 17.1136C87.9728 17.8985 88.81 18.5352 89.4816 18.1078L93.5719 15.5176C93.6866 15.4446 93.8197 15.4059 93.9556 15.4059C94.0916 15.4059 94.2247 15.4446 94.3394 15.5176Z" fill="#FFA43C"/>
<path d="M122.581 15.5176L126.976 18.3084C127.543 18.666 128.241 18.134 128.075 17.4799L126.802 12.4738C126.767 12.3351 126.773 12.1894 126.817 12.0536C126.862 11.9178 126.944 11.7975 127.055 11.7063L130.997 8.4184C131.511 7.99106 131.25 7.12765 130.578 7.08404L125.432 6.75263C125.292 6.74446 125.157 6.69557 125.044 6.61193C124.931 6.5283 124.845 6.41354 124.796 6.28168L122.877 1.45006C122.826 1.31043 122.734 1.18982 122.612 1.10458C122.49 1.01935 122.345 0.973633 122.197 0.973633C122.048 0.973633 121.903 1.01935 121.782 1.10458C121.66 1.18982 121.567 1.31043 121.517 1.45006L119.598 6.28168C119.549 6.41354 119.463 6.5283 119.35 6.61193C119.237 6.69557 119.102 6.74446 118.961 6.75263L113.816 7.08404C113.144 7.12765 112.882 7.99106 113.397 8.4184L117.339 11.7063C117.449 11.7975 117.531 11.9178 117.576 12.0536C117.621 12.1894 117.626 12.3351 117.592 12.4738L116.415 17.1136C116.214 17.8985 117.051 18.5352 117.723 18.1078L121.813 15.5176C121.928 15.4446 122.061 15.4059 122.197 15.4059C122.333 15.4059 122.466 15.4446 122.581 15.5176Z" stroke="#FFA43C" stroke-width="1.05853" stroke-linecap="round" stroke-linejoin="round"/>
</svg>
