<svg xmlns="http://www.w3.org/2000/svg" width="247" height="41" viewBox="0 0 247 41" fill="none"><g clip-path="url(#clip0_98_695)"><path d="M76.52 5.1204H73.5464V2.6095H82.1735V5.1204H79.2075V16.1829H76.52V5.1204Z" fill="#1C1C1C"></path><path d="M90.5193 13.672H95.0122V16.1829H87.8242V2.6095H95.0122V5.1204H90.5193V8.1365H93.5731V10.6559H90.5193V13.672Z" fill="#1C1C1C"></path><path d="M111.392 2.61517H110.553H109.881H107.898V11.3934L105.651 2.61517H101.949V13.6635H101.099V16.2131H101.912H102.615H104.593V7.43866L106.823 16.2131H110.542V5.16479H111.392V2.61517Z" fill="#1C1C1C"></path><path d="M90.6096 36.1397H95.1262V38.6639H87.9004V25.0187H95.1262V27.5428H90.6096V30.575H93.6795V33.1076H90.6096V36.1397Z" fill="#1C1C1C"></path><path d="M120.001 36.1397H124.518V38.6639H117.292V25.0187H124.518V27.5428H120.001V30.575H123.071V33.1076H120.001V36.1397Z" fill="#1C1C1C"></path><path d="M196.066 36.1397H200.583V38.6639H193.357V25.0187H200.583V27.5428H196.066V30.575H199.136V33.1076H196.066V36.1397Z" fill="#1C1C1C"></path><path d="M217.248 25.0895H216.389H215.714H213.66V33.8498L211.461 25.0895H207.711V36.1379H206.861V38.6875H207.703H208.409H210.449V29.8734L212.638 38.6875H216.398V27.5447H217.248V25.0895Z" fill="#1C1C1C"></path><path d="M73.5581 25.0187H79.5421C80.0851 25.0187 80.5525 25.1991 80.9454 25.5588C81.3429 25.9243 81.5422 26.3653 81.5422 26.8818V35.253C81.5422 36.2965 81.1446 37.135 80.3486 37.7696C79.6016 38.3664 78.6687 38.6648 77.5506 38.6648H73.5591V25.0197L73.5581 25.0187ZM76.2683 27.5428V36.1397H77.5506C78.4052 36.1397 78.833 35.8442 78.833 35.253V27.5438H76.2683V27.5428Z" fill="#1C1C1C"></path><path d="M111.014 25.0895H107.717C107.233 27.5447 106.668 31.2719 106.023 36.1379C105.383 31.2775 104.817 27.5447 104.322 25.0895H101.005V27.5447H102.07L104.225 38.6875H107.83L109.979 27.5447H111.015V25.0895H111.014Z" fill="#1C1C1C"></path><path d="M130.746 38.6639V25.0187H133.456V36.1397H138.075V38.6639H130.747H130.746Z" fill="#1C1C1C"></path><path d="M150.306 25.0187C150.849 25.0187 151.317 25.1991 151.71 25.5588C152.107 25.9243 152.306 26.3653 152.306 26.8818V36.8008C152.306 37.3173 152.107 37.7573 151.71 38.1237C151.317 38.4835 150.849 38.6639 150.306 38.6639H146.322C145.779 38.6639 145.312 38.4835 144.919 38.1237C144.522 37.7583 144.322 37.3173 144.322 36.8008V26.8818C144.322 26.3653 144.522 25.9252 144.919 25.5588C145.312 25.1991 145.779 25.0187 146.322 25.0187H150.306ZM147.032 27.5428V36.1397H149.597V27.5428H147.032Z" fill="#1C1C1C"></path><path d="M158.543 25.0187H164.527C165.07 25.0187 165.538 25.1991 165.931 25.5588C166.328 25.9243 166.528 26.3653 166.528 26.8818V30.3984C166.528 31.4362 166.13 32.2719 165.334 32.9065C164.587 33.5033 163.654 33.8017 162.536 33.8017H161.254V38.6648H158.543V25.0197V25.0187ZM161.254 27.5428V31.2766H162.536C163.391 31.2766 163.818 30.9839 163.818 30.3974V27.5428H161.254Z" fill="#1C1C1C"></path><path d="M186.181 36.1379V25.0895H182.468L179.985 36.1785L177.484 25.0895H173.716V36.1379H172.772V38.6875H173.726H174.308H176.455V29.6722L178.339 38.6875H181.63L183.537 29.6722V38.6875H185.563H186.226H187.125V36.1379H186.181Z" fill="#1C1C1C"></path><path d="M226.474 27.5428H223.484V25.0187H232.156V27.5428H229.175V38.6639H226.474V27.5428Z" fill="#1C1C1C"></path><path d="M245.192 31.4702C244.445 30.8734 243.512 30.575 242.394 30.575C241.54 30.575 241.112 30.2822 241.112 29.6958V27.5428H243.677V28.6769H246.387V26.8818C246.387 26.3653 246.188 25.9252 245.79 25.5588C245.397 25.1991 244.93 25.0187 244.387 25.0187H240.403C239.86 25.0187 239.392 25.1991 239 25.5588C238.602 25.9243 238.403 26.3653 238.403 26.8818V29.6968C238.403 30.7402 238.8 31.5788 239.596 32.2133C240.343 32.8101 241.276 33.1085 242.394 33.1085C243.249 33.1085 243.677 33.4013 243.677 33.9877V36.1407H241.112V34.5561H238.402V36.8017C238.402 37.3182 238.601 37.7583 238.999 38.1247C239.391 38.4844 239.859 38.6648 240.402 38.6648H244.386C244.929 38.6648 245.396 38.4844 245.789 38.1247C246.187 37.7592 246.386 37.3182 246.386 36.8017V33.9867C246.386 32.9433 245.988 32.1047 245.192 31.4702Z" fill="#1C1C1C"></path><path d="M17.6427 29.3927C16.4604 26.5976 15.8608 23.6315 15.8608 20.573C15.8608 17.5144 16.4604 14.5474 17.6427 11.7522C18.7844 9.05342 20.418 6.63035 22.4983 4.54911C23.639 3.40839 24.8827 2.38854 26.2179 1.53867H10.416L0.552734 12.3991L6.62459 19.0753L10.5755 14.7098V39.595H26.2226C24.8855 38.7451 23.6399 37.7328 22.4983 36.5911C20.418 34.5108 18.7844 32.0915 17.6427 29.3927Z" fill="#2BB7D0"></path><path d="M26.435 21.7477H18.1601C18.7389 32.0991 27.0374 40.3891 37.3936 40.9538V32.6798C31.5984 32.1454 26.9827 27.5391 26.435 21.7477ZM44.9168 12.6115L39.6816 17.8467L41.2841 19.4492L46.5174 14.2159C46.0519 13.6172 45.5146 13.078 44.9178 12.6106L44.9168 12.6115ZM30.5446 26.9838C31.0111 27.5806 31.5512 28.1189 32.1499 28.5835L37.4115 23.3218L35.809 21.7193L30.5455 26.9829L30.5446 26.9838ZM50.6147 19.4813H58.8887C58.3344 9.10913 50.0293 0.795501 39.6599 0.225143V8.50005C45.4683 9.03925 50.0888 13.6692 50.6147 19.4813ZM39.6599 32.6789V40.9538C50.0123 40.3844 58.307 32.0963 58.8859 21.7477H50.61C50.0623 27.5362 45.4513 32.1416 39.6599 32.6789ZM30.5493 14.1904L45.0169 28.6581C45.6137 28.1906 46.151 27.6505 46.6156 27.0518L32.1555 12.5917C31.5569 13.0563 31.0167 13.5936 30.5493 14.1904ZM37.3936 8.49911V0.225143C27.0204 0.79078 18.7125 9.1063 18.1572 19.4813H26.4303C26.9562 13.6673 31.5814 9.03547 37.3936 8.49911Z" fill="url(#paint0_linear_98_695)"></path></g><defs><linearGradient id="paint0_linear_98_695" x1="18.1572" y1="20.5899" x2="58.8887" y2="20.5899" gradientUnits="userSpaceOnUse"><stop stop-color="#2BB7D0"></stop><stop offset="1" stop-color="#2184B1"></stop></linearGradient><clipPath id="clip0_98_695"><rect width="245.833" height="40.7286" fill="white" transform="translate(0.553223 0.225143)"></rect></clipPath></defs></svg>